{"glyphs":{"0":{"ha":1504,"x_min":0,"x_max":1393,"o":"m 1232 851 l 1260 817 q 1360 628 1326 733 q 1393 406 1393 524 q 1347 153 1393 272 q 1220 -59 1301 33 q 1028 -210 1139 -151 q 786 -281 917 -268 l 740 -285 q 717 -286 729 -286 q 694 -286 706 -286 q 422 -233 549 -286 q 201 -85 294 -179 q 53 134 107 8 q 0 406 0 260 q 53 678 0 551 q 201 898 107 804 q 422 1045 294 992 q 694 1099 549 1099 q 1000 1034 861 1099 q 1232 851 1139 969 m 694 -246 q 727 -246 711 -246 q 758 -243 743 -246 l 1215 813 q 992 992 1126 926 q 694 1058 858 1058 q 435 1008 554 1058 q 229 871 317 958 q 92 664 142 783 q 43 406 43 544 q 92 147 43 265 q 229 -60 142 28 q 435 -197 317 -147 q 694 -246 554 -246 m 1350 406 q 1242 775 1350 614 l 804 -237 q 1022 -162 922 -219 q 1195 -20 1122 -106 q 1309 174 1268 65 q 1350 406 1350 283 z "},"1":{"ha":394,"x_min":0,"x_max":283,"o":"m 0 1017 l 0 1056 l 283 1056 l 283 -286 l 242 -286 l 242 1017 l 0 1017 z "},"2":{"ha":989,"x_min":0,"x_max":878,"o":"m 878 -246 l 878 -286 l 432 -286 l 388 -286 l 0 -286 l 0 -269 l 408 136 l 442 169 q 557 288 496 224 q 669 420 618 351 q 754 562 721 489 q 788 708 788 635 q 757 863 788 800 q 678 964 726 925 q 572 1020 631 1003 q 454 1038 513 1038 q 222 968 319 1038 q 74 772 124 899 l 71 765 l 35 778 l 38 786 q 101 908 60 854 q 198 1000 143 963 q 318 1058 253 1038 q 454 1078 383 1078 q 592 1056 525 1078 q 713 988 660 1033 q 798 874 765 943 q 831 708 831 804 q 822 630 831 668 q 796 553 813 592 l 449 -246 l 878 -246 m 81 -246 l 404 -246 l 661 343 q 564 234 614 285 q 468 139 514 183 l 81 -246 z "},"3":{"ha":1074,"x_min":0,"x_max":963,"o":"m 525 579 q 701 548 621 579 q 839 462 781 517 q 930 331 897 407 q 963 165 963 254 q 927 -18 963 65 q 828 -160 892 -101 q 677 -253 765 -219 q 483 -286 589 -286 q 331 -265 404 -286 q 194 -206 257 -244 q 83 -113 132 -168 q 3 10 33 -58 l 0 18 l 39 35 l 42 28 q 110 -85 67 -35 q 209 -170 153 -135 q 332 -225 265 -206 q 471 -246 399 -244 l 776 460 q 663 518 726 497 q 525 539 600 539 q 419 524 474 539 q 314 489 365 508 l 307 486 l 299 503 l 808 1038 l 119 1038 l 119 1078 l 886 1078 l 886 1061 l 408 563 q 525 579 467 579 m 808 433 l 514 -244 q 679 -208 604 -240 q 808 -122 754 -176 q 891 5 861 -68 q 921 165 921 78 q 891 316 921 249 q 808 433 861 383 z "},"4":{"ha":1126,"x_min":0,"x_max":1015,"o":"m 835 554 l 835 29 l 1015 29 l 1015 -10 l 835 -10 l 835 -286 l 793 -286 l 793 -10 l 592 -10 l 549 -10 l 0 -10 l 0 6 l 1 8 l 818 1082 l 835 1082 l 835 654 l 835 554 m 69 29 l 565 29 l 793 556 l 793 982 l 69 29 m 608 29 l 793 29 l 793 457 l 608 29 z "},"5":{"ha":1024,"x_min":0,"x_max":913,"o":"m 763 544 l 793 515 q 844 450 824 488 q 881 372 865 413 q 913 189 913 285 q 813 -115 913 10 q 574 -269 724 -229 q 512 -283 543 -278 q 446 -286 481 -287 l 404 -285 q 335 -276 368 -282 q 290 -266 311 -272 q 247 -253 268 -260 q 158 -210 200 -236 q 66 -129 103 -174 q 4 -43 29 -85 l 0 -36 l 36 -18 l 39 -25 q 91 -99 60 -61 q 168 -168 122 -136 q 293 -226 219 -204 q 353 -239 321 -235 q 421 -246 385 -243 l 746 507 q 612 593 688 563 q 440 624 536 624 q 281 599 349 624 q 195 558 235 583 q 111 496 156 532 l 107 492 l 93 500 l 93 1078 l 807 1078 l 807 1038 l 136 1038 l 136 560 q 170 585 153 574 q 206 607 188 596 q 440 664 313 664 q 561 650 507 664 q 645 622 606 639 q 721 579 685 604 q 744 562 733 571 q 763 544 754 553 m 821 -26 q 858 74 844 21 q 871 189 871 126 q 852 326 871 264 q 799 442 833 389 q 787 459 792 451 q 775 475 782 467 l 464 -246 q 519 -241 492 -244 q 574 -229 547 -237 q 612 -215 593 -222 q 649 -199 631 -208 q 710 -159 681 -181 q 765 -108 740 -137 q 796 -69 782 -89 q 821 -26 810 -49 z "},"6":{"ha":1032,"x_min":0,"x_max":921,"o":"m 776 492 l 806 461 q 885 336 854 408 q 921 158 921 253 q 885 -17 921 63 q 786 -158 849 -96 q 651 -251 728 -217 q 483 -286 575 -286 l 440 -286 q 299 -262 365 -286 q 178 -199 232 -239 q 139 -166 157 -183 q 104 -129 121 -149 q 56 -61 76 -97 q 22 18 35 -25 q 10 63 14 39 q 0 158 0 103 q 19 295 0 229 q 82 438 39 361 q 108 481 94 460 q 136 524 121 503 l 518 1076 l 567 1076 l 168 499 q 310 583 231 553 q 472 613 389 613 q 563 603 522 613 q 628 584 597 596 q 690 554 660 572 q 776 492 742 526 m 42 158 q 74 0 42 74 q 162 -128 106 -74 q 294 -215 218 -183 q 457 -247 369 -247 l 758 451 q 630 541 704 510 q 472 572 556 572 q 303 539 382 572 q 110 385 185 490 q 42 158 42 288 m 807 -69 q 859 37 840 -21 q 878 158 878 94 q 857 292 878 229 q 788 418 832 361 l 501 -244 q 677 -190 597 -236 q 807 -69 757 -144 z "},"7":{"ha":1007,"x_min":0,"x_max":896,"o":"m 724 706 l 700 661 l 208 -286 l 165 -286 l 678 710 l 546 1017 l 0 1017 l 0 1056 l 529 1056 l 572 1056 l 896 1056 l 896 1039 l 724 706 m 589 1017 l 701 756 l 836 1017 l 589 1017 z "},"8":{"ha":1013,"x_min":0,"x_max":901,"o":"m 775 406 l 806 375 q 878 260 854 326 q 901 122 901 194 q 873 -27 901 43 q 794 -151 844 -97 q 675 -240 744 -206 q 522 -281 606 -274 l 476 -285 q 464 -286 469 -286 q 451 -286 458 -286 q 273 -255 356 -286 q 130 -169 190 -224 q 35 -40 69 -115 q 0 122 0 35 q 25 258 0 194 q 94 374 50 322 q 202 461 139 425 q 340 514 265 497 q 185 623 243 549 q 128 790 128 697 q 153 910 128 854 q 223 1008 179 967 q 326 1074 267 1050 q 451 1099 385 1099 q 578 1074 518 1099 q 682 1008 638 1050 q 752 910 726 967 q 778 790 778 854 q 762 702 778 744 q 717 623 746 660 q 649 558 689 586 q 560 514 608 531 q 679 473 624 500 q 775 406 735 446 m 169 790 q 192 690 169 738 q 253 608 214 643 q 343 551 292 572 q 451 531 394 531 q 560 551 508 531 q 650 608 611 572 q 712 690 689 643 q 735 790 735 738 q 712 894 735 844 q 650 979 689 943 q 560 1037 611 1015 q 451 1058 508 1058 q 342 1038 393 1058 q 252 980 290 1017 q 192 894 214 943 q 169 790 169 846 m 451 -246 q 473 -246 463 -246 q 494 -244 483 -246 l 758 367 q 624 458 703 425 q 451 492 544 492 q 291 463 365 492 q 161 385 217 435 q 74 267 106 335 q 43 122 43 200 q 74 -26 43 42 q 158 -142 104 -93 q 288 -219 213 -192 q 451 -246 363 -246 m 860 122 q 841 235 860 182 q 788 333 822 289 l 540 -239 q 670 -194 611 -226 q 771 -115 729 -162 q 836 -8 813 -68 q 860 122 860 53 z "},"9":{"ha":1032,"x_min":0,"x_max":921,"o":"m 519 1074 l 558 1068 q 706 1019 639 1057 q 820 922 772 981 q 894 790 868 864 q 921 632 921 715 q 888 453 921 540 q 783 267 856 367 l 389 -286 l 340 -286 l 751 290 q 610 207 688 236 q 449 178 533 178 q 319 196 381 178 q 206 250 257 214 l 172 274 q 44 427 89 332 q 0 632 0 522 q 35 807 0 725 q 133 949 71 889 q 280 1043 196 1008 q 461 1078 364 1078 q 519 1074 490 1078 m 43 632 q 83 453 43 536 q 190 313 122 371 l 503 1036 q 482 1037 492 1036 q 461 1038 472 1038 q 297 1006 374 1038 q 165 920 221 975 q 76 791 108 865 q 43 632 43 717 m 449 218 q 569 235 510 218 q 681 285 629 253 q 775 360 733 317 q 842 457 817 404 q 878 632 878 536 q 853 776 878 708 q 783 895 828 843 q 677 983 739 947 q 543 1031 615 1018 l 222 289 q 328 237 271 256 q 449 218 385 218 z "},"\u0000":{"ha":0,"x_min":0,"x_max":0,"o":""},"\r":{"ha":0,"x_min":0,"x_max":0,"o":""}," ":{"ha":617,"x_min":0,"x_max":0,"o":""},"!":{"ha":150,"x_min":0,"x_max":39,"o":"m 0 -285 l 39 -285 l 39 -204 l 0 -204 l 0 -285 m 0 1103 l 39 1103 l 39 99 l 39 18 l 0 18 l 0 99 l 0 1103 z "},"\"":{"ha":304,"x_min":0,"x_max":193,"o":"m 38 1046 l 38 953 l 0 953 l 0 1046 l 0 1071 l 0 1108 l 38 1108 l 79 1108 l 63 1071 l 38 1071 l 38 1046 m 151 1046 l 151 953 l 114 953 l 114 1046 l 114 1071 l 114 1108 l 151 1108 l 193 1108 l 175 1071 l 151 1071 l 151 1046 z "},"#":{"ha":1094,"x_min":0,"x_max":983,"o":"m 983 539 l 782 539 l 682 128 l 915 128 l 915 93 l 674 93 l 582 -285 l 547 -285 l 639 93 l 228 93 l 138 -285 l 101 -285 l 193 93 l 0 93 l 0 128 l 203 128 l 301 539 l 68 539 l 68 574 l 310 574 l 397 932 l 433 932 l 344 574 l 756 574 l 843 932 l 879 932 l 790 574 l 983 574 l 983 539 m 647 128 l 747 539 l 703 539 l 336 539 l 236 128 l 375 128 l 419 128 l 647 128 z "},"$":{"ha":885,"x_min":0,"x_max":774,"o":"m 364 926 q 303 921 333 924 q 246 911 274 918 q 144 871 188 899 q 104 838 122 857 q 72 797 86 819 q 51 747 58 775 q 44 686 43 719 q 56 619 47 650 q 78 565 64 589 q 147 490 104 518 q 246 453 189 464 q 303 444 274 447 q 364 440 332 440 l 393 440 q 462 435 428 440 q 531 424 496 431 q 653 382 599 411 q 740 303 707 353 q 774 172 774 253 q 738 44 774 94 q 695 -3 718 18 q 644 -40 672 -25 q 587 -68 617 -56 q 522 -87 557 -81 q 393 -104 453 -103 l 393 -286 l 364 -286 l 364 -103 q 306 -99 333 -103 q 251 -87 279 -94 q 201 -72 226 -81 q 153 -51 176 -62 q 108 -27 129 -40 q 68 0 88 -14 q 32 29 49 15 q 0 58 15 43 l 22 78 q 108 14 65 42 q 192 -33 150 -14 q 276 -64 232 -53 q 364 -75 319 -75 l 393 -75 q 453 -71 424 -75 q 515 -60 483 -67 q 575 -42 547 -53 q 629 -17 603 -32 q 713 58 682 14 q 744 172 744 104 q 711 292 744 243 q 626 364 678 338 q 572 386 600 378 q 513 400 543 394 q 451 408 481 406 q 393 411 421 411 l 364 411 q 295 416 328 411 q 231 428 263 421 q 119 474 168 442 q 43 557 72 504 q 15 686 15 608 q 46 811 15 764 q 128 893 83 865 q 240 939 178 924 q 364 956 306 954 l 364 1103 l 393 1103 l 393 956 q 583 915 508 951 q 701 810 651 881 l 674 799 q 618 858 651 833 q 586 880 603 869 q 550 897 569 890 q 513 910 532 904 q 474 918 494 915 q 463 919 469 919 q 450 921 457 919 q 416 923 438 922 q 364 926 394 924 z "},"%":{"ha":1153,"x_min":0,"x_max":1042,"o":"m 4 -257 l 33 -279 l 1039 983 l 1010 1004 l 4 -257 m 61 660 q 36 689 47 674 q 17 724 25 704 q 0 806 0 761 q 17 885 0 847 q 61 951 36 929 q 126 996 89 979 q 207 1013 164 1013 q 288 996 247 1013 q 353 951 325 979 q 397 885 381 924 q 414 806 414 847 q 397 724 414 761 q 353 660 383 690 q 324 635 340 646 q 288 615 307 625 q 207 599 247 599 q 126 615 164 599 q 61 660 86 633 m 43 872 q 33 839 36 856 q 31 806 31 822 q 35 770 32 788 q 46 736 39 753 q 63 707 53 721 q 83 679 72 693 q 110 658 97 668 q 139 642 124 649 q 174 631 157 633 q 207 628 190 628 q 276 643 242 628 q 333 682 307 656 q 369 739 354 706 q 383 806 383 767 q 369 875 383 846 q 353 905 363 890 q 331 931 343 919 q 274 968 306 956 q 207 982 244 982 q 138 968 165 982 q 81 929 104 953 q 43 872 58 907 m 981 65 q 1007 34 996 50 q 1025 0 1018 18 q 1042 -81 1042 -39 q 1025 -161 1042 -124 q 982 -226 1007 -200 q 951 -251 967 -240 q 915 -271 935 -262 q 836 -286 874 -286 q 779 -278 806 -286 q 701 -234 735 -265 q 647 -161 667 -203 q 631 -81 631 -124 q 647 0 631 -40 q 690 65 667 42 q 721 90 706 79 q 756 108 736 100 q 794 120 775 115 q 836 125 814 125 q 915 108 878 125 q 981 65 953 93 m 956 46 q 903 82 933 67 q 836 96 871 96 q 767 82 799 96 q 737 65 751 75 q 711 43 722 56 q 674 -14 689 21 q 661 -81 658 -46 q 676 -150 661 -112 q 740 -227 697 -199 q 836 -256 783 -256 q 906 -242 878 -256 q 935 -225 921 -235 q 961 -203 950 -215 q 999 -147 986 -178 q 1013 -81 1013 -114 q 997 -12 1013 -47 q 956 46 982 21 z "},"&":{"ha":1151,"x_min":0,"x_max":1040,"o":"m 140 772 l 140 771 q 147 724 140 747 q 164 681 153 701 q 186 638 175 658 q 213 597 197 617 q 243 559 228 578 q 274 522 258 540 q 338 458 307 488 q 381 485 357 471 q 432 515 404 500 q 539 586 492 547 q 625 672 589 626 q 656 738 649 703 q 658 809 664 774 q 633 876 651 844 q 586 932 615 908 q 472 987 536 972 q 344 988 408 1001 q 269 960 306 979 q 203 915 232 942 q 158 851 175 888 q 140 772 140 815 m 36 68 q 59 -49 35 10 q 124 -147 83 -107 q 231 -222 169 -194 q 358 -249 292 -249 q 540 -209 458 -250 q 693 -101 622 -168 q 768 -22 735 -60 l 333 414 l 235 349 q 128 265 179 313 q 53 154 76 217 q 36 68 36 113 m 879 139 l 919 139 q 870 55 896 94 q 817 -21 844 15 l 1040 -240 l 1013 -268 l 793 -47 q 752 -91 774 -69 q 707 -135 731 -112 q 611 -211 665 -174 q 560 -240 588 -226 q 506 -265 533 -254 q 393 -286 451 -286 q 243 -261 314 -286 q 117 -189 175 -239 q 32 -78 63 -143 q 0 68 0 -7 q 29 189 0 135 q 106 290 60 244 q 153 335 129 314 q 204 372 178 356 l 307 439 q 224 535 261 490 q 158 618 186 579 q 103 771 103 694 q 129 883 103 833 q 199 965 154 931 q 244 993 221 981 q 296 1013 268 1006 q 352 1024 324 1021 q 410 1028 381 1028 q 468 1023 440 1028 q 521 1010 496 1018 q 613 958 572 993 q 675 878 653 925 q 697 771 697 833 q 661 661 697 711 q 619 612 642 635 q 571 568 597 589 q 517 527 544 546 q 463 492 490 508 q 410 459 435 474 q 364 433 385 444 l 792 6 q 838 71 819 43 q 879 139 857 99 z "},"'":{"ha":190,"x_min":0,"x_max":79,"o":"m 38 1040 l 38 947 l 0 947 l 0 1040 l 0 1065 l 0 1103 l 38 1103 l 79 1103 l 63 1065 l 38 1065 l 38 1040 z "},"(":{"ha":508,"x_min":0,"x_max":397,"o":"m 336 1099 l 369 1083 l 40 331 l 397 -265 l 369 -286 l 22 290 l 0 329 l 17 368 l 336 1099 z "},")":{"ha":508,"x_min":0,"x_max":397,"o":"m 28 1083 l 61 1099 l 381 368 l 397 329 l 375 290 l 28 -286 l 0 -265 l 358 331 l 28 1083 z "},"*":{"ha":2833,"x_min":0,"x_max":0,"o":""},"+":{"ha":638,"x_min":0,"x_max":526,"o":"m 282 425 l 526 425 l 526 388 l 282 388 l 282 125 l 244 125 l 244 388 l 0 388 l 0 425 l 244 425 l 244 689 l 282 689 l 282 425 z "},",":{"ha":190,"x_min":0,"x_max":79,"o":"m 42 -378 l 42 -286 l 79 -286 l 79 -378 l 79 -403 l 79 -440 l 42 -440 l 0 -440 l 18 -403 l 42 -403 l 42 -378 z "},"-":{"ha":583,"x_min":0,"x_max":472,"o":"m 472 353 l 0 353 l 0 389 l 472 389 l 472 353 z "},".":{"ha":154,"x_min":0,"x_max":43,"o":"m 43 -286 l 0 -286 l 0 -218 l 43 -218 l 43 -286 z "},"/":{"ha":903,"x_min":1,"x_max":872,"o":"m 32 -286 l 1 -268 l 842 1103 l 872 1085 l 32 -286 z "},":":{"ha":154,"x_min":0,"x_max":43,"o":"m 43 -286 l 0 -286 l 0 -150 l 43 -150 l 43 -286 m 43 679 l 0 679 l 0 815 l 43 815 l 43 679 z "},";":{"ha":189,"x_min":0,"x_max":78,"o":"m 42 -406 l 42 -287 l 78 -287 l 78 -406 l 78 -429 l 78 -467 l 42 -467 l 0 -467 l 17 -429 l 42 -429 l 42 -406 m 42 553 l 78 553 l 78 435 l 42 435 l 42 553 z "},"<":{"ha":768,"x_min":0,"x_max":657,"o":"m 0 385 l 0 413 l 643 796 l 657 771 l 46 399 l 657 25 l 643 1 l 0 385 z "},"=":{"ha":624,"x_min":0,"x_max":513,"o":"m 513 322 l 0 322 l 0 360 l 513 360 l 513 322 m 513 454 l 0 454 l 0 492 l 513 492 l 513 454 z "},">":{"ha":768,"x_min":0,"x_max":657,"o":"m 657 413 l 657 385 l 14 1 l 0 25 l 611 399 l 0 771 l 14 796 l 657 413 z "},"?":{"ha":942,"x_min":0,"x_max":833,"o":"m 319 -268 l 363 -268 l 363 -179 l 319 -179 l 319 -268 m 797 879 q 824 789 815 836 q 831 694 833 742 q 816 603 829 647 q 778 521 803 558 q 642 392 725 439 q 603 370 622 381 q 561 351 583 360 q 504 331 533 340 q 444 317 475 322 q 428 315 442 317 q 401 310 415 313 q 374 308 386 308 q 363 307 363 307 q 362 292 363 307 q 360 256 361 278 q 360 210 360 235 q 360 169 360 186 l 360 86 q 360 74 360 85 q 360 51 360 64 q 360 29 360 39 q 363 19 361 19 l 319 19 l 319 103 l 319 251 l 319 271 l 319 357 q 439 367 403 360 l 479 375 q 594 415 539 388 q 696 485 650 443 q 734 528 717 504 q 763 582 751 553 q 786 733 788 644 q 772 813 786 771 q 742 888 758 856 q 639 1000 704 960 q 498 1051 574 1040 q 344 1047 422 1063 q 201 993 265 1032 q 38 813 89 922 l 0 829 q 32 889 14 861 q 74 942 50 917 q 122 986 97 965 q 178 1026 147 1007 q 261 1067 215 1050 q 350 1094 307 1083 q 482 1100 414 1108 q 612 1063 550 1092 q 722 987 674 1033 q 797 879 771 940 z "},"@":{"ha":1344,"x_min":0,"x_max":1272,"o":"m 1226 658 q 1261 533 1250 596 q 1272 407 1272 471 q 1222 144 1272 269 q 1188 69 1207 106 q 1144 5 1169 33 q 1083 -40 1118 -24 q 1001 -57 1049 -57 q 933 -40 958 -57 q 893 4 908 -24 q 875 65 879 33 q 871 99 872 82 q 868 132 869 115 q 736 36 815 75 q 538 -4 649 -4 q 444 11 497 -4 q 399 30 421 18 q 360 57 378 42 q 299 133 322 89 q 281 185 288 157 q 274 244 274 213 q 304 351 274 307 q 383 424 338 397 q 492 464 436 451 q 608 476 551 476 q 774 460 704 476 q 835 445 810 451 q 875 432 860 439 q 873 508 875 472 q 864 576 871 543 q 849 638 857 610 q 825 692 840 667 q 791 734 811 715 q 747 767 771 753 q 624 793 696 793 q 485 764 553 793 q 419 733 450 750 q 358 694 388 715 l 335 725 q 401 765 367 747 q 471 799 435 783 q 624 831 547 831 q 778 793 719 831 q 867 700 833 758 q 891 642 882 672 q 906 579 900 611 q 914 457 914 514 q 910 308 914 375 q 906 160 906 243 q 906 124 906 140 q 908 90 906 107 q 913 60 910 75 q 921 33 917 46 q 950 -6 931 10 q 1001 -19 969 -19 q 1074 -3 1044 -19 q 1126 39 1104 13 q 1163 99 1147 65 q 1190 168 1178 132 q 1233 407 1233 286 q 1222 532 1233 471 q 1188 651 1210 593 q 1133 765 1164 713 q 1063 861 1103 817 q 872 1007 981 954 q 638 1061 764 1061 q 393 1004 504 1061 q 290 941 339 976 q 204 856 242 906 l 200 850 l 174 817 q 121 736 143 779 q 82 646 99 693 q 49 528 60 586 q 39 407 38 469 q 52 283 40 344 q 88 161 64 222 q 211 -49 132 43 q 399 -194 290 -140 q 494 -230 444 -217 q 597 -246 543 -243 l 633 -247 l 638 -247 q 850 -206 750 -247 l 867 -237 q 757 -274 814 -261 q 638 -286 700 -286 q 378 -222 499 -285 q 269 -153 319 -192 q 176 -67 219 -115 q 46 153 93 29 q 0 407 0 275 q 49 668 0 539 q 96 768 69 721 q 158 858 122 815 l 183 889 q 276 977 225 939 q 386 1043 328 1015 q 638 1100 501 1100 q 894 1039 775 1100 q 1096 881 1013 979 q 1169 776 1136 832 q 1226 658 1203 721 m 871 240 q 873 264 872 249 q 874 296 874 279 q 875 327 875 313 q 875 347 875 342 q 874 358 874 351 l 874 389 q 860 393 867 392 q 849 396 853 394 l 839 399 q 814 406 828 401 q 782 414 800 410 l 706 431 q 659 437 683 436 q 608 438 635 438 q 553 435 581 438 q 503 428 526 432 q 455 415 478 422 q 410 396 432 407 q 373 370 390 385 q 342 336 356 356 q 313 244 313 296 q 333 151 311 190 q 386 86 354 111 q 458 47 418 63 q 538 33 496 33 q 592 37 565 33 q 644 46 619 40 q 735 78 699 58 q 776 101 758 90 q 810 126 794 113 q 834 153 824 140 q 851 182 844 167 q 871 240 867 215 z "},"A":{"ha":1340,"x_min":0,"x_max":1229,"o":"m 958 343 l 976 301 l 1229 -278 l 1186 -278 l 972 213 l 956 251 l 951 258 l 629 -278 l 599 -278 l 276 261 l 272 251 l 257 213 l 43 -278 l 0 -278 l 253 300 l 271 342 l 599 1092 l 633 1092 l 958 343 m 614 -232 l 933 301 l 615 1036 l 294 303 l 614 -232 z "},"B":{"ha":1088,"x_min":0,"x_max":978,"o":"m 954 204 l 958 190 q 972 136 967 164 q 976 78 978 108 q 965 3 976 44 q 957 -27 961 -12 q 946 -57 953 -42 q 935 -79 940 -68 q 924 -100 931 -90 q 872 -171 904 -137 q 836 -205 856 -190 q 796 -233 817 -219 l 765 -249 q 745 -258 754 -254 q 726 -264 736 -261 q 635 -278 686 -278 l 582 -278 l 65 -278 l 22 -278 l 0 -278 l 0 1092 l 606 1092 l 617 1092 l 656 1088 q 697 1078 678 1085 q 735 1061 717 1071 q 773 1038 754 1050 q 807 1010 792 1026 q 833 981 818 1001 q 859 947 847 965 q 881 906 871 928 q 890 887 886 896 q 896 869 893 878 q 900 858 899 863 q 903 847 901 853 q 918 743 918 790 q 882 583 918 658 q 874 568 879 576 q 865 551 869 560 q 721 425 810 464 q 776 403 750 415 q 826 372 803 390 q 869 335 850 356 q 907 292 889 315 q 935 250 922 272 q 954 204 947 228 m 717 1026 q 679 1042 699 1036 q 640 1050 660 1047 l 372 432 l 594 432 q 710 460 657 432 q 758 490 735 474 q 800 531 776 506 q 833 578 822 557 q 847 603 840 590 q 858 631 853 615 q 879 743 879 685 q 877 779 879 761 q 872 817 875 797 l 860 861 q 848 890 856 876 q 833 917 840 904 q 803 958 817 942 q 782 981 793 969 q 757 1001 771 992 q 738 1015 747 1008 q 717 1026 728 1021 m 39 432 l 39 394 l 39 -239 l 314 394 l 331 432 l 600 1054 l 39 1054 l 39 432 m 906 -58 l 914 -39 q 928 1 921 -22 q 936 54 933 28 q 938 66 938 61 q 938 78 938 71 q 929 151 938 115 q 924 174 926 163 q 915 196 921 185 l 897 235 l 888 251 q 854 297 872 276 q 834 318 844 308 q 813 338 824 328 q 776 361 796 350 q 770 365 774 364 q 763 368 767 365 l 742 376 q 699 389 721 385 q 649 394 676 394 l 588 394 l 356 394 l 82 -239 l 635 -239 q 753 -212 701 -239 q 780 -198 767 -206 q 804 -181 793 -190 q 815 -173 810 -178 q 828 -162 821 -168 q 839 -152 833 -157 q 850 -140 844 -147 q 861 -128 856 -133 q 871 -115 867 -122 q 906 -58 892 -89 z "},"C":{"ha":1290,"x_min":0,"x_max":1179,"o":"m 1142 49 l 1179 39 q 1142 -33 1164 -4 q 1119 -65 1131 -50 q 1092 -94 1107 -79 q 1051 -131 1072 -114 q 1007 -164 1031 -149 q 982 -180 994 -172 q 957 -194 969 -187 q 926 -212 942 -204 q 894 -226 910 -219 q 800 -258 844 -249 q 646 -279 717 -279 q 601 -278 624 -279 q 558 -274 579 -276 q 528 -268 543 -271 q 499 -261 514 -265 q 467 -252 483 -257 q 435 -240 450 -247 q 385 -218 407 -231 q 356 -203 369 -211 q 329 -186 343 -194 q 293 -162 310 -174 q 258 -135 276 -150 q 219 -98 239 -117 q 181 -60 199 -79 q 146 -17 161 -39 q 115 29 131 6 l 92 68 q 67 115 76 92 q 47 164 57 139 q 0 415 0 285 q 46 674 0 549 q 101 792 69 736 q 175 897 133 849 q 371 1051 254 993 q 453 1085 411 1071 q 542 1104 496 1099 l 578 1108 q 601 1110 589 1110 q 624 1110 613 1110 q 813 1088 733 1110 q 958 1026 896 1064 q 1068 932 1018 990 q 1121 857 1099 897 l 1146 811 l 1110 799 l 1081 847 q 1033 910 1060 883 q 979 961 1007 938 q 943 987 961 976 q 907 1007 925 997 q 869 1025 888 1017 q 831 1040 850 1033 q 803 1049 817 1046 q 774 1056 789 1053 q 624 1071 697 1071 q 592 1070 607 1071 q 561 1068 576 1069 l 133 72 q 156 35 144 53 q 179 3 168 18 q 217 -42 200 -25 q 247 -73 232 -58 q 279 -103 263 -87 q 319 -133 299 -119 q 358 -158 336 -146 l 408 -186 l 432 -197 q 576 -236 499 -228 q 646 -240 610 -240 q 713 -235 678 -240 q 786 -218 749 -229 q 818 -208 803 -212 q 847 -197 833 -204 q 933 -157 888 -183 q 990 -124 963 -142 q 1040 -85 1017 -106 l 1063 -65 q 1076 -52 1069 -58 q 1088 -39 1082 -46 q 1120 3 1107 -18 q 1142 49 1133 25 m 86 168 q 98 140 92 154 q 111 113 104 126 l 524 1063 q 381 1014 450 1050 q 196 865 274 957 q 79 654 119 772 q 49 537 58 596 q 39 415 39 478 q 86 168 39 283 z "},"D":{"ha":1192,"x_min":0,"x_max":1081,"o":"m 1042 674 q 1081 408 1081 553 q 1070 259 1081 329 q 1036 126 1060 189 q 1016 76 1026 101 q 992 28 1006 51 q 967 -14 981 6 q 939 -53 954 -33 l 908 -90 q 876 -121 893 -106 q 842 -150 860 -136 q 817 -168 831 -160 q 792 -185 804 -176 q 749 -208 771 -197 q 706 -228 728 -218 q 657 -246 682 -239 q 606 -260 632 -253 q 525 -274 567 -271 q 439 -278 483 -278 l 399 -278 l 372 -278 l 0 -278 l 0 654 l 0 700 l 0 1090 l 439 1090 q 590 1078 521 1090 q 722 1036 661 1064 q 922 890 840 983 q 956 847 940 869 q 986 800 972 824 q 1017 739 1003 771 q 1042 674 1031 707 m 39 -239 l 357 -239 l 39 558 l 39 -239 m 1000 150 q 1043 408 1036 264 q 1042 426 1043 422 q 1000 672 1038 560 q 883 875 961 789 q 856 903 869 890 q 826 929 842 917 q 803 947 815 939 q 776 964 790 956 q 737 986 757 975 q 696 1006 717 997 q 609 1033 656 1024 q 510 1049 563 1043 q 476 1051 493 1050 q 439 1053 458 1053 l 226 1053 l 39 1053 l 39 656 l 392 -239 l 439 -239 q 614 -219 529 -239 q 700 -190 654 -210 q 808 -129 754 -168 q 849 -94 831 -112 q 886 -56 868 -75 q 953 40 925 -11 q 1000 150 981 90 z "},"E":{"ha":1010,"x_min":0,"x_max":899,"o":"m 0 -278 l 0 206 l 0 224 l 0 239 l 0 244 l 543 569 l 0 569 l 0 574 l 0 590 l 0 608 l 0 1090 l 881 1090 l 881 1053 l 39 1053 l 39 608 l 615 608 l 615 569 l 79 249 l 39 224 l 39 206 l 39 -239 l 899 -239 l 899 -278 l 0 -278 z "},"F":{"ha":992,"x_min":0,"x_max":881,"o":"m 881 1053 l 39 1053 l 39 608 l 615 608 l 615 569 l 79 249 l 39 224 l 39 206 l 39 -278 l 0 -278 l 0 206 l 0 224 l 0 239 l 0 244 l 543 569 l 0 569 l 0 574 l 0 590 l 0 608 l 0 1090 l 881 1090 l 881 1053 z "},"G":{"ha":1289,"x_min":0,"x_max":1178,"o":"m 1178 383 l 1178 56 l 1144 3 q 1119 -33 1132 -17 q 1090 -67 1106 -50 q 889 -219 1003 -162 q 768 -262 831 -247 q 638 -278 706 -278 q 379 -214 499 -276 q 178 -58 263 -156 q 46 161 93 39 q 0 415 0 283 q 49 678 0 549 q 96 778 69 731 q 158 868 122 825 l 183 899 l 185 900 q 280 986 232 947 q 386 1053 328 1025 q 638 1110 507 1110 q 896 1049 776 1110 q 1097 890 1014 989 q 1127 852 1113 871 q 1154 813 1142 833 l 1118 801 q 1064 871 1089 843 q 874 1017 982 964 q 638 1071 765 1071 q 394 1014 506 1071 q 290 950 339 986 q 204 865 240 914 l 200 860 l 635 -239 q 638 -240 636 -239 q 882 -183 771 -240 q 1071 -33 992 -125 q 1107 14 1090 -10 q 1139 64 1124 38 l 1139 344 l 817 344 l 817 383 l 1178 383 m 399 -186 q 599 -239 490 -231 l 175 826 q 123 744 146 788 q 82 654 100 701 q 49 537 60 596 q 39 415 38 478 q 52 292 40 353 q 88 169 64 231 q 213 -40 133 51 q 399 -186 294 -135 z "},"H":{"ha":1139,"x_min":0,"x_max":1028,"o":"m 990 1092 l 1028 1092 l 1028 -278 l 990 -278 l 990 382 l 550 118 l 514 96 l 478 118 l 39 381 l 39 -278 l 0 -278 l 0 1092 l 39 1092 l 39 443 l 411 443 l 617 443 l 990 443 l 990 1092 m 75 403 l 514 140 l 954 403 l 75 403 z "},"I":{"ha":150,"x_min":0,"x_max":39,"o":"m 39 -276 l 0 -276 l 0 1090 l 39 1090 l 39 -276 z "},"J":{"ha":814,"x_min":0,"x_max":703,"o":"m 664 785 l 703 761 l 703 740 l 703 407 q 701 258 703 328 q 690 122 700 188 l 678 38 q 670 1 675 18 q 660 -33 665 -17 q 647 -65 653 -50 q 635 -96 642 -81 q 618 -128 626 -112 q 599 -157 610 -143 q 560 -201 583 -178 q 537 -221 549 -212 q 513 -237 525 -229 q 496 -247 504 -243 q 479 -256 488 -251 q 379 -282 440 -274 q 340 -286 360 -285 q 297 -287 319 -287 q 228 -283 261 -287 q 138 -267 181 -279 q 0 -203 64 -244 l 21 -172 q 51 -191 36 -182 q 83 -207 67 -200 q 297 -249 175 -249 q 339 -247 319 -249 q 378 -243 358 -246 q 409 -237 394 -240 q 438 -229 424 -233 q 493 -204 467 -219 q 542 -165 518 -189 q 575 -124 560 -147 q 590 -100 583 -112 q 603 -75 596 -87 q 620 -30 613 -53 q 633 19 628 -7 q 641 53 638 36 q 647 90 644 71 q 649 110 649 101 q 651 131 650 119 q 658 205 656 167 q 661 285 660 243 q 663 344 663 314 q 664 407 664 375 l 664 500 l 664 742 l 663 742 l 126 1063 l 126 1064 l 126 1101 l 664 1101 l 703 1101 l 703 1063 l 664 1063 l 199 1063 l 664 785 z "},"K":{"ha":1163,"x_min":0,"x_max":1051,"o":"m 1011 -240 l 1051 -278 l 996 -278 l 0 -278 l 0 -240 l 0 1092 l 39 1092 l 39 665 l 365 363 l 944 1092 l 994 1092 l 394 336 l 1011 -240 m 39 -240 l 956 -240 l 39 611 l 39 -240 z "},"L":{"ha":1010,"x_min":0,"x_max":899,"o":"m 339 -239 l 39 456 l 39 -239 l 339 -239 m 0 447 l 0 543 l 0 1092 l 39 1092 l 39 551 l 364 -197 l 382 -239 l 899 -239 l 899 -278 l 360 -278 l 317 -278 l 0 -278 l 0 447 z "},"M":{"ha":1435,"x_min":0,"x_max":1324,"o":"m 1293 1092 l 1324 1092 l 1324 1053 l 1324 -278 l 1285 -278 l 1285 1007 l 676 -8 l 646 -8 l 39 1007 l 39 -278 l 0 -278 l 0 1053 l 0 1092 l 31 1092 l 1293 1092 m 661 39 l 1269 1053 l 54 1053 l 661 39 z "},"N":{"ha":1226,"x_min":0,"x_max":1115,"o":"m 1114 1092 l 1115 1053 l 1115 -278 l 1071 -278 l 39 1017 l 39 -278 l 0 -278 l 0 1053 l 0 1092 l 29 1092 l 1114 1092 m 1076 -222 l 1076 1053 l 60 1053 l 1076 -222 z "},"O":{"ha":1386,"x_min":0,"x_max":1275,"o":"m 1229 658 q 1275 407 1275 535 q 1226 144 1275 268 q 1090 -76 1179 21 q 889 -229 1006 -172 q 769 -272 831 -257 q 639 -287 707 -287 q 379 -224 496 -285 q 178 -68 263 -164 q 102 35 135 -19 q 46 153 69 90 q 0 407 0 275 q 49 669 0 540 q 158 860 92 779 l 185 892 q 277 980 226 943 q 386 1044 328 1017 q 639 1101 507 1101 q 897 1040 778 1101 q 1099 882 1018 979 q 1229 658 1181 785 m 213 -49 q 399 -194 292 -140 q 496 -231 446 -218 q 599 -247 546 -244 l 175 818 q 123 736 146 779 q 82 646 100 693 q 49 528 60 588 q 39 407 38 469 q 52 283 40 344 q 88 161 64 222 q 213 -49 133 43 m 1193 168 q 1236 407 1236 281 q 1226 531 1236 469 q 1192 653 1215 592 q 1065 864 1146 772 q 875 1008 983 954 q 639 1063 767 1063 q 394 1006 504 1063 q 290 942 339 978 q 204 857 240 906 l 200 851 l 635 -249 l 639 -249 q 767 -234 707 -249 q 882 -192 828 -219 q 986 -126 940 -162 q 1072 -43 1032 -90 q 1142 56 1113 3 q 1193 168 1171 110 z "},"P":{"ha":1054,"x_min":0,"x_max":943,"o":"m 914 829 q 943 678 943 754 q 917 521 943 592 q 840 388 889 446 q 722 296 790 329 q 571 260 653 260 l 39 260 l 39 -278 l 0 -278 l 0 1092 l 382 1092 l 425 1092 l 557 1092 q 711 1056 642 1092 q 835 961 783 1021 q 914 829 885 903 m 39 1053 l 39 299 l 365 1053 l 39 1053 m 882 540 q 904 678 904 603 q 878 818 904 753 q 845 881 864 853 q 803 938 826 910 q 693 1021 757 990 q 557 1053 629 1053 l 408 1053 l 82 299 l 571 299 q 711 332 649 299 q 815 418 778 368 q 882 540 860 472 z "},"Q":{"ha":1386,"x_min":0,"x_max":1275,"o":"m 1275 417 q 1067 -96 1275 129 l 1204 -268 l 1156 -268 l 1040 -124 q 953 -188 1000 -160 q 854 -237 907 -217 q 639 -278 753 -278 l 636 -278 q 500 -261 564 -278 q 379 -214 436 -244 q 178 -58 263 -154 q 102 45 135 -10 q 46 163 69 100 q 0 417 0 285 q 49 679 0 556 q 61 708 56 694 q 74 735 67 721 l 85 756 q 93 772 89 764 q 103 788 97 781 q 110 799 106 794 q 117 811 114 804 q 126 824 121 818 q 135 838 131 831 q 143 849 139 844 q 151 861 147 854 l 158 869 l 183 900 l 185 901 q 221 938 204 921 q 257 971 238 956 q 386 1054 317 1021 q 639 1111 507 1111 q 897 1050 778 1111 q 1099 892 1018 989 q 1229 668 1183 789 q 1268 517 1257 596 q 1273 467 1271 492 q 1275 417 1275 442 m 842 -200 q 863 -192 853 -196 q 883 -182 872 -187 q 985 -117 938 -154 q 1072 -33 1032 -81 q 1142 67 1113 14 q 1193 178 1171 119 q 1236 417 1236 290 q 1214 592 1236 511 q 1203 627 1208 610 q 1192 663 1199 644 q 1065 872 1144 785 q 875 1018 983 965 q 639 1072 767 1072 q 394 1015 504 1072 q 290 951 339 988 q 204 867 240 915 l 200 861 l 635 -239 l 639 -239 l 668 -239 q 674 -238 671 -239 q 681 -237 678 -237 q 689 -237 685 -237 q 696 -236 693 -236 q 704 -235 700 -236 q 713 -235 708 -235 q 722 -233 715 -233 l 743 -229 l 744 -229 q 842 -200 794 -221 m 575 -236 l 585 -236 q 599 -237 588 -237 l 175 828 q 163 813 168 821 q 153 796 158 804 q 148 789 150 793 q 143 782 146 785 q 135 768 139 775 q 128 754 131 761 q 120 742 124 747 q 114 729 117 736 l 103 707 l 82 656 q 39 417 36 543 q 52 293 40 354 q 88 171 64 232 q 213 -39 133 53 q 283 -110 246 -79 q 401 -185 340 -154 q 575 -236 483 -226 z "},"R":{"ha":1054,"x_min":0,"x_max":943,"o":"m 765 319 l 736 301 q 715 291 725 296 q 693 282 704 286 q 663 272 678 276 q 629 264 647 267 l 594 260 l 628 208 l 942 -278 l 894 -278 l 547 260 l 269 260 l 39 -278 l 0 -278 l 0 1092 l 557 1092 q 572 1092 564 1092 q 586 1090 579 1092 l 622 1086 q 667 1075 644 1083 q 711 1056 689 1067 q 778 1014 747 1036 q 835 961 808 992 q 856 933 846 947 q 876 904 867 919 q 900 861 890 882 q 908 844 904 853 q 914 828 911 836 q 926 797 921 813 q 933 767 931 782 q 938 744 936 756 q 940 722 939 733 q 943 700 943 711 q 943 676 943 689 q 942 638 943 657 q 938 600 942 619 l 926 549 l 918 525 l 908 500 q 901 480 906 489 q 892 461 896 471 q 885 450 889 456 q 878 438 881 444 q 863 415 871 426 q 847 394 856 403 l 818 363 q 793 340 806 351 q 765 319 781 329 m 39 299 l 39 260 l 39 -181 l 229 260 l 246 299 l 571 1053 l 557 1053 l 39 1053 l 39 299 m 285 299 l 571 299 q 611 301 592 299 q 650 308 631 304 q 710 332 682 317 l 729 343 q 760 363 744 353 q 789 389 776 374 l 815 418 q 839 449 829 433 q 858 482 849 465 q 882 538 872 507 q 894 583 889 561 q 901 626 900 604 q 904 651 904 639 q 904 676 904 664 q 900 736 904 707 q 893 770 897 754 q 883 801 889 786 l 878 818 l 867 844 l 854 867 q 847 879 851 874 q 839 892 843 885 q 822 915 831 904 q 803 938 814 926 l 778 964 q 749 988 765 978 q 718 1007 733 997 q 706 1015 711 1011 q 693 1021 700 1018 q 649 1039 671 1032 q 606 1049 628 1046 l 285 299 z "},"S":{"ha":1126,"x_min":0,"x_max":1015,"o":"m 969 257 q 1015 85 1015 190 q 967 -86 1015 -17 q 912 -148 943 -121 q 843 -197 881 -175 q 679 -260 771 -239 q 657 -264 668 -262 q 635 -268 646 -265 q 602 -273 618 -272 q 571 -275 586 -274 q 540 -277 556 -276 q 510 -278 525 -278 l 493 -278 q 430 -274 461 -278 q 369 -265 399 -271 l 346 -261 l 313 -253 q 261 -236 286 -246 q 213 -215 236 -226 q 0 -65 88 -153 l 29 -40 q 250 -189 124 -139 q 510 -239 376 -239 q 671 -222 589 -239 q 757 -196 719 -211 l 793 -181 q 808 -174 800 -178 q 822 -165 815 -169 q 835 -158 829 -161 q 847 -150 840 -154 q 933 -65 901 -111 q 976 85 976 -4 q 971 143 976 122 q 931 244 963 199 q 815 339 883 306 q 661 386 743 374 q 601 392 631 390 q 543 396 572 394 l 504 397 l 500 397 q 467 398 483 397 q 433 400 450 399 q 400 403 417 401 q 367 407 383 404 l 328 414 q 321 415 322 414 q 287 423 303 418 q 257 432 271 428 q 211 450 233 440 q 167 474 189 460 q 135 497 150 485 q 107 522 121 508 q 60 585 83 546 q 19 758 19 654 q 44 890 19 832 q 53 907 49 899 q 63 924 57 915 q 74 940 68 932 q 86 956 79 949 q 136 1006 108 985 q 155 1019 146 1013 q 175 1033 164 1026 q 248 1068 210 1053 q 329 1093 286 1083 q 494 1111 407 1111 q 518 1111 506 1111 q 542 1110 531 1111 q 576 1108 560 1108 q 607 1104 592 1107 l 642 1099 l 643 1099 q 678 1091 661 1096 q 711 1081 696 1086 q 736 1072 724 1076 q 760 1063 749 1068 q 815 1029 789 1049 q 849 1001 831 1019 q 921 919 890 964 l 883 904 q 849 949 868 928 q 807 986 831 971 l 779 1004 q 744 1023 761 1015 q 710 1038 728 1031 q 669 1051 690 1044 q 626 1061 649 1057 l 381 444 q 396 442 394 442 l 419 439 q 433 438 426 439 q 446 438 439 438 q 473 436 460 436 q 500 436 486 436 q 589 432 544 436 q 636 427 613 429 q 683 421 660 425 q 750 406 718 414 q 811 383 782 397 l 850 365 q 856 362 853 363 q 863 358 860 361 q 898 334 882 347 q 929 306 914 321 q 969 257 950 283 m 343 449 l 592 1067 q 565 1069 578 1068 q 538 1071 551 1071 q 516 1072 526 1072 q 494 1072 506 1072 q 336 1056 413 1072 q 315 1051 325 1053 q 294 1046 304 1049 l 244 1026 q 220 1015 232 1021 q 197 1003 208 1010 l 178 990 l 144 963 q 113 926 126 944 q 105 916 108 921 q 99 906 101 911 q 69 842 79 876 q 58 758 58 800 q 63 685 57 719 q 85 622 69 650 l 107 583 q 148 535 124 556 q 200 499 172 514 q 342 450 267 463 l 343 449 z "},"T":{"ha":1200,"x_min":0,"x_max":1089,"o":"m 564 1054 l 525 1054 l 74 1054 l 525 783 l 564 760 l 564 728 l 564 -278 l 525 -278 l 525 739 l 1 1054 l 0 1054 l 0 1092 l 1089 1092 l 1088 1054 l 564 1054 z "},"U":{"ha":1224,"x_min":0,"x_max":1113,"o":"m 1075 1111 l 1113 1111 l 1113 413 q 1106 278 1113 342 q 1085 151 1100 214 q 1047 34 1069 89 q 992 -68 1025 -21 q 821 -221 926 -162 q 557 -278 714 -278 q 508 -276 532 -278 q 460 -271 483 -275 l 415 -264 q 348 -245 379 -257 q 289 -218 317 -233 q 118 -61 183 -160 q 26 160 53 36 q 0 413 0 282 l 0 710 l 0 793 l 0 1111 l 39 1111 l 39 704 l 442 -231 q 557 -239 496 -239 q 810 -182 713 -239 q 969 -32 911 -124 q 1020 67 1000 15 q 1051 176 1040 118 q 1069 294 1063 235 q 1075 413 1075 353 l 1075 1111 m 306 -183 q 350 -203 328 -194 q 396 -219 372 -212 l 39 619 l 39 413 q 44 290 39 350 q 63 171 50 229 q 146 -37 85 54 q 306 -183 201 -126 z "},"V":{"ha":1338,"x_min":0,"x_max":1226,"o":"m 1226 1082 l 1210 1043 l 635 -279 l 592 -279 l 17 1043 l 0 1082 l 40 1082 l 1183 1082 l 1226 1082 m 613 -231 l 1167 1043 l 57 1043 l 613 -231 z "},"W":{"ha":2067,"x_min":0,"x_max":1956,"o":"m 1292 -247 l 978 475 l 664 -247 l 1292 -247 m 976 571 l 1186 1051 l 768 1051 l 976 571 m 1369 -247 l 1351 -286 l 1308 -286 l 647 -286 l 604 -286 l 588 -247 l 0 1103 l 43 1103 l 626 -237 l 957 524 l 725 1051 l 708 1090 l 751 1090 l 1203 1090 l 1246 1090 l 1229 1051 l 997 524 l 1331 -237 l 1913 1103 l 1956 1103 l 1369 -247 z "},"X":{"ha":1258,"x_min":0,"x_max":1147,"o":"m 1103 -240 l 1132 -278 l 1132 -279 l 1085 -279 l 1083 -278 l 65 -279 l 15 -279 l 44 -242 l 550 392 l 0 1082 l 50 1082 l 575 422 l 1100 1082 l 1147 1082 l 597 392 l 1103 -240 m 94 -242 l 1054 -240 l 575 361 l 94 -242 z "},"Y":{"ha":1251,"x_min":0,"x_max":1140,"o":"m 1140 1082 l 1115 1044 l 588 249 l 588 -279 l 550 -279 l 550 251 l 25 1043 l 0 1081 l 0 1082 l 44 1082 l 44 1081 l 1096 1082 l 1140 1082 m 569 292 l 1071 1044 l 69 1043 l 569 292 z "},"Z":{"ha":1200,"x_min":3,"x_max":1089,"o":"m 1089 1082 l 1089 1043 l 533 -240 l 1081 -240 l 1081 -279 l 517 -279 l 474 -279 l 3 -279 l 3 -240 l 1040 1043 l 13 1043 l 13 1082 l 1089 1082 m 490 -240 l 999 932 l 50 -240 l 490 -240 z "},"\\":{"ha":982,"x_min":0,"x_max":871,"o":"m 871 -268 l 840 -286 l 0 1085 l 31 1103 l 871 -268 z "},"_":{"ha":825,"x_min":1,"x_max":714,"o":"m 714 -286 l 1 -286 l 1 -249 l 714 -249 l 714 -286 z "},"`":{"ha":617,"x_min":0,"x_max":0,"o":""},"a":{"ha":1340,"x_min":0,"x_max":1229,"o":"m 958 343 l 976 301 l 1229 -278 l 1186 -278 l 972 213 l 956 251 l 951 258 l 629 -278 l 599 -278 l 276 261 l 272 251 l 257 213 l 43 -278 l 0 -278 l 253 300 l 271 342 l 599 1092 l 633 1092 l 958 343 m 614 -232 l 933 301 l 615 1036 l 294 303 l 614 -232 z "},"b":{"ha":1088,"x_min":0,"x_max":978,"o":"m 954 204 l 958 190 q 972 136 967 164 q 976 78 978 108 q 965 3 976 44 q 957 -27 961 -12 q 946 -57 953 -42 q 935 -79 940 -68 q 924 -100 931 -90 q 872 -171 904 -137 q 836 -205 856 -190 q 796 -233 817 -219 l 765 -249 q 745 -258 754 -254 q 726 -264 736 -261 q 635 -278 686 -278 l 582 -278 l 65 -278 l 22 -278 l 0 -278 l 0 1092 l 606 1092 l 617 1092 l 656 1088 q 697 1078 678 1085 q 735 1061 717 1071 q 773 1038 754 1050 q 807 1010 792 1026 q 833 981 818 1001 q 859 947 847 965 q 881 906 871 928 q 890 887 886 896 q 896 869 893 878 q 900 858 899 863 q 903 847 901 853 q 918 743 918 790 q 882 583 918 658 q 874 568 879 576 q 865 551 869 560 q 721 425 810 464 q 776 403 750 415 q 826 372 803 390 q 869 335 850 356 q 907 292 889 315 q 935 250 922 272 q 954 204 947 228 m 717 1026 q 679 1042 699 1036 q 640 1050 660 1047 l 372 432 l 594 432 q 710 460 657 432 q 758 490 735 474 q 800 531 776 506 q 833 578 822 557 q 847 603 840 590 q 858 631 853 615 q 879 743 879 685 q 877 779 879 761 q 872 817 875 797 l 860 861 q 848 890 856 876 q 833 917 840 904 q 803 958 817 942 q 782 981 793 969 q 757 1001 771 992 q 738 1015 747 1008 q 717 1026 728 1021 m 39 432 l 39 394 l 39 -239 l 314 394 l 331 432 l 600 1054 l 39 1054 l 39 432 m 906 -58 l 914 -39 q 928 1 921 -22 q 936 54 933 28 q 938 66 938 61 q 938 78 938 71 q 929 151 938 115 q 924 174 926 163 q 915 196 921 185 l 897 235 l 888 251 q 854 297 872 276 q 834 318 844 308 q 813 338 824 328 q 776 361 796 350 q 770 365 774 364 q 763 368 767 365 l 742 376 q 699 389 721 385 q 649 394 676 394 l 588 394 l 356 394 l 82 -239 l 635 -239 q 753 -212 701 -239 q 780 -198 767 -206 q 804 -181 793 -190 q 815 -173 810 -178 q 828 -162 821 -168 q 839 -152 833 -157 q 850 -140 844 -147 q 861 -128 856 -133 q 871 -115 867 -122 q 906 -58 892 -89 z "},"c":{"ha":1290,"x_min":0,"x_max":1179,"o":"m 1142 49 l 1179 39 q 1142 -33 1164 -4 q 1119 -65 1131 -50 q 1092 -94 1107 -79 q 1051 -131 1072 -114 q 1007 -164 1031 -149 q 982 -180 994 -172 q 957 -194 969 -187 q 926 -212 942 -204 q 894 -226 910 -219 q 800 -258 844 -249 q 646 -279 717 -279 q 601 -278 624 -279 q 558 -274 579 -276 q 528 -268 543 -271 q 499 -261 514 -265 q 467 -252 483 -257 q 435 -240 450 -247 q 385 -218 407 -231 q 356 -203 369 -211 q 329 -186 343 -194 q 293 -162 310 -174 q 258 -135 276 -150 q 219 -98 239 -117 q 181 -60 199 -79 q 146 -17 161 -39 q 115 29 131 6 l 92 68 q 67 115 76 92 q 47 164 57 139 q 0 415 0 285 q 46 674 0 549 q 101 792 69 736 q 175 897 133 849 q 371 1051 254 993 q 453 1085 411 1071 q 542 1104 496 1099 l 578 1108 q 601 1110 589 1110 q 624 1110 613 1110 q 813 1088 733 1110 q 958 1026 896 1064 q 1068 932 1018 990 q 1121 857 1099 897 l 1146 811 l 1110 799 l 1081 847 q 1033 910 1060 883 q 979 961 1007 938 q 943 987 961 976 q 907 1007 925 997 q 869 1025 888 1017 q 831 1040 850 1033 q 803 1049 817 1046 q 774 1056 789 1053 q 624 1071 697 1071 q 592 1070 607 1071 q 561 1068 576 1069 l 133 72 q 156 35 144 53 q 179 3 168 18 q 217 -42 200 -25 q 247 -73 232 -58 q 279 -103 263 -87 q 319 -133 299 -119 q 358 -158 336 -146 l 408 -186 l 432 -197 q 576 -236 499 -228 q 646 -240 610 -240 q 713 -235 678 -240 q 786 -218 749 -229 q 818 -208 803 -212 q 847 -197 833 -204 q 933 -157 888 -183 q 990 -124 963 -142 q 1040 -85 1017 -106 l 1063 -65 q 1076 -52 1069 -58 q 1088 -39 1082 -46 q 1120 3 1107 -18 q 1142 49 1133 25 m 86 168 q 98 140 92 154 q 111 113 104 126 l 524 1063 q 381 1014 450 1050 q 196 865 274 957 q 79 654 119 772 q 49 537 58 596 q 39 415 39 478 q 86 168 39 283 z "},"d":{"ha":1192,"x_min":0,"x_max":1081,"o":"m 1042 674 q 1081 408 1081 553 q 1070 259 1081 329 q 1036 126 1060 189 q 1016 76 1026 101 q 992 28 1006 51 q 967 -14 981 6 q 939 -53 954 -33 l 908 -90 q 876 -121 893 -106 q 842 -150 860 -136 q 817 -168 831 -160 q 792 -185 804 -176 q 749 -208 771 -197 q 706 -228 728 -218 q 657 -246 682 -239 q 606 -260 632 -253 q 525 -274 567 -271 q 439 -278 483 -278 l 399 -278 l 372 -278 l 0 -278 l 0 654 l 0 700 l 0 1090 l 439 1090 q 590 1078 521 1090 q 722 1036 661 1064 q 922 890 840 983 q 956 847 940 869 q 986 800 972 824 q 1017 739 1003 771 q 1042 674 1031 707 m 39 -239 l 357 -239 l 39 558 l 39 -239 m 1000 150 q 1043 408 1036 264 q 1042 426 1043 422 q 1000 672 1038 560 q 883 875 961 789 q 856 903 869 890 q 826 929 842 917 q 803 947 815 939 q 776 964 790 956 q 737 986 757 975 q 696 1006 717 997 q 609 1033 656 1024 q 510 1049 563 1043 q 476 1051 493 1050 q 439 1053 458 1053 l 226 1053 l 39 1053 l 39 656 l 392 -239 l 439 -239 q 614 -219 529 -239 q 700 -190 654 -210 q 808 -129 754 -168 q 849 -94 831 -112 q 886 -56 868 -75 q 953 40 925 -11 q 1000 150 981 90 z "},"e":{"ha":1010,"x_min":0,"x_max":899,"o":"m 0 -278 l 0 206 l 0 224 l 0 239 l 0 244 l 543 569 l 0 569 l 0 574 l 0 590 l 0 608 l 0 1090 l 881 1090 l 881 1053 l 39 1053 l 39 608 l 615 608 l 615 569 l 79 249 l 39 224 l 39 206 l 39 -239 l 899 -239 l 899 -278 l 0 -278 z "},"f":{"ha":992,"x_min":0,"x_max":881,"o":"m 881 1053 l 39 1053 l 39 608 l 615 608 l 615 569 l 79 249 l 39 224 l 39 206 l 39 -278 l 0 -278 l 0 206 l 0 224 l 0 239 l 0 244 l 543 569 l 0 569 l 0 574 l 0 590 l 0 608 l 0 1090 l 881 1090 l 881 1053 z "},"g":{"ha":1289,"x_min":0,"x_max":1178,"o":"m 1178 383 l 1178 56 l 1144 3 q 1119 -33 1132 -17 q 1090 -67 1106 -50 q 889 -219 1003 -162 q 768 -262 831 -247 q 638 -278 706 -278 q 379 -214 499 -276 q 178 -58 263 -156 q 46 161 93 39 q 0 415 0 283 q 49 678 0 549 q 96 778 69 731 q 158 868 122 825 l 183 899 l 185 900 q 280 986 232 947 q 386 1053 328 1025 q 638 1110 507 1110 q 896 1049 776 1110 q 1097 890 1014 989 q 1127 852 1113 871 q 1154 813 1142 833 l 1118 801 q 1064 871 1089 843 q 874 1017 982 964 q 638 1071 765 1071 q 394 1014 506 1071 q 290 950 339 986 q 204 865 240 914 l 200 860 l 635 -239 q 638 -240 636 -239 q 882 -183 771 -240 q 1071 -33 992 -125 q 1107 14 1090 -10 q 1139 64 1124 38 l 1139 344 l 817 344 l 817 383 l 1178 383 m 399 -186 q 599 -239 490 -231 l 175 826 q 123 744 146 788 q 82 654 100 701 q 49 537 60 596 q 39 415 38 478 q 52 292 40 353 q 88 169 64 231 q 213 -40 133 51 q 399 -186 294 -135 z "},"h":{"ha":1139,"x_min":0,"x_max":1028,"o":"m 990 1092 l 1028 1092 l 1028 -278 l 990 -278 l 990 382 l 550 118 l 514 96 l 478 118 l 39 381 l 39 -278 l 0 -278 l 0 1092 l 39 1092 l 39 443 l 411 443 l 617 443 l 990 443 l 990 1092 m 75 403 l 514 140 l 954 403 l 75 403 z "},"i":{"ha":150,"x_min":0,"x_max":39,"o":"m 39 -276 l 0 -276 l 0 1090 l 39 1090 l 39 -276 z "},"j":{"ha":814,"x_min":0,"x_max":703,"o":"m 664 785 l 703 761 l 703 740 l 703 407 q 701 258 703 328 q 690 122 700 188 l 678 38 q 670 1 675 18 q 660 -33 665 -17 q 647 -65 653 -50 q 635 -96 642 -81 q 618 -128 626 -112 q 599 -157 610 -143 q 560 -201 583 -178 q 537 -221 549 -212 q 513 -237 525 -229 q 496 -247 504 -243 q 479 -256 488 -251 q 379 -282 440 -274 q 340 -286 360 -285 q 297 -287 319 -287 q 228 -283 261 -287 q 138 -267 181 -279 q 0 -203 64 -244 l 21 -172 q 51 -191 36 -182 q 83 -207 67 -200 q 297 -249 175 -249 q 339 -247 319 -249 q 378 -243 358 -246 q 409 -237 394 -240 q 438 -229 424 -233 q 493 -204 467 -219 q 542 -165 518 -189 q 575 -124 560 -147 q 590 -100 583 -112 q 603 -75 596 -87 q 620 -30 613 -53 q 633 19 628 -7 q 641 53 638 36 q 647 90 644 71 q 649 110 649 101 q 651 131 650 119 q 658 205 656 167 q 661 285 660 243 q 663 344 663 314 q 664 407 664 375 l 664 500 l 664 742 l 663 742 l 126 1063 l 126 1064 l 126 1101 l 664 1101 l 703 1101 l 703 1063 l 664 1063 l 199 1063 l 664 785 z "},"k":{"ha":1163,"x_min":0,"x_max":1051,"o":"m 1011 -240 l 1051 -278 l 996 -278 l 0 -278 l 0 -240 l 0 1092 l 39 1092 l 39 665 l 365 363 l 944 1092 l 994 1092 l 394 336 l 1011 -240 m 39 -240 l 956 -240 l 39 611 l 39 -240 z "},"l":{"ha":1010,"x_min":0,"x_max":899,"o":"m 339 -239 l 39 456 l 39 -239 l 339 -239 m 0 447 l 0 543 l 0 1092 l 39 1092 l 39 551 l 364 -197 l 382 -239 l 899 -239 l 899 -278 l 360 -278 l 317 -278 l 0 -278 l 0 447 z "},"m":{"ha":1435,"x_min":0,"x_max":1324,"o":"m 1293 1092 l 1324 1092 l 1324 1053 l 1324 -278 l 1285 -278 l 1285 1007 l 676 -8 l 646 -8 l 39 1007 l 39 -278 l 0 -278 l 0 1053 l 0 1092 l 31 1092 l 1293 1092 m 661 39 l 1269 1053 l 54 1053 l 661 39 z "},"n":{"ha":1226,"x_min":0,"x_max":1115,"o":"m 1114 1092 l 1115 1053 l 1115 -278 l 1071 -278 l 39 1017 l 39 -278 l 0 -278 l 0 1053 l 0 1092 l 29 1092 l 1114 1092 m 1076 -222 l 1076 1053 l 60 1053 l 1076 -222 z "},"o":{"ha":1386,"x_min":0,"x_max":1275,"o":"m 1229 658 q 1275 407 1275 535 q 1226 144 1275 268 q 1090 -76 1179 21 q 889 -229 1006 -172 q 769 -272 831 -257 q 639 -287 707 -287 q 379 -224 496 -285 q 178 -68 263 -164 q 102 35 135 -19 q 46 153 69 90 q 0 407 0 275 q 49 669 0 540 q 158 860 92 779 l 185 892 q 277 980 226 943 q 386 1044 328 1017 q 639 1101 507 1101 q 897 1040 778 1101 q 1099 882 1018 979 q 1229 658 1182 782 m 213 -49 q 399 -194 292 -140 q 496 -231 446 -218 q 599 -247 546 -244 l 175 818 q 123 736 146 779 q 82 646 100 693 q 49 528 60 588 q 39 407 38 469 q 52 283 40 344 q 88 161 64 222 q 213 -49 133 43 m 1193 168 q 1236 407 1236 281 q 1226 531 1236 469 q 1192 653 1215 592 q 1065 864 1146 772 q 875 1008 983 954 q 639 1063 767 1063 q 394 1006 504 1063 q 290 942 339 978 q 204 857 240 906 l 200 851 l 635 -249 l 639 -249 q 767 -234 707 -249 q 882 -192 828 -219 q 986 -126 940 -162 q 1072 -43 1032 -90 q 1142 56 1113 3 q 1193 168 1171 110 z "},"p":{"ha":1054,"x_min":0,"x_max":943,"o":"m 914 829 q 943 678 943 754 q 917 521 943 592 q 840 388 889 446 q 722 296 790 329 q 571 260 653 260 l 39 260 l 39 -278 l 0 -278 l 0 1092 l 382 1092 l 425 1092 l 557 1092 q 711 1056 642 1092 q 835 961 783 1021 q 914 829 885 903 m 39 1053 l 39 299 l 365 1053 l 39 1053 m 882 540 q 904 678 904 603 q 878 818 904 753 q 845 881 864 853 q 803 938 826 910 q 693 1021 757 990 q 557 1053 629 1053 l 408 1053 l 82 299 l 571 299 q 711 332 649 299 q 815 418 778 368 q 882 540 860 472 z "},"q":{"ha":1386,"x_min":0,"x_max":1275,"o":"m 1275 417 q 1067 -96 1275 129 l 1204 -268 l 1156 -268 l 1040 -124 q 953 -188 1000 -160 q 854 -237 907 -217 q 639 -278 753 -278 l 636 -278 q 500 -261 564 -278 q 379 -214 436 -244 q 178 -58 263 -154 q 102 45 135 -10 q 46 163 69 100 q 0 417 0 285 q 49 679 0 556 q 61 708 56 694 q 74 735 67 721 l 85 756 q 93 772 89 764 q 103 788 97 781 q 110 799 106 794 q 117 811 114 804 q 126 824 121 818 q 135 838 131 831 q 143 849 139 844 q 151 861 147 854 l 158 869 l 183 900 l 185 901 q 221 938 204 921 q 257 971 238 956 q 386 1054 317 1021 q 639 1111 507 1111 q 897 1050 778 1111 q 1099 892 1018 989 q 1229 668 1183 789 q 1268 517 1257 596 q 1273 467 1271 492 q 1275 417 1275 442 m 842 -200 q 863 -192 853 -196 q 883 -182 872 -187 q 985 -117 938 -154 q 1072 -33 1032 -81 q 1142 67 1113 14 q 1193 178 1171 119 q 1236 417 1236 290 q 1214 592 1236 511 q 1203 627 1208 610 q 1192 663 1199 644 q 1065 872 1144 785 q 875 1018 983 965 q 639 1072 767 1072 q 394 1015 504 1072 q 290 951 339 988 q 204 867 240 915 l 200 861 l 635 -239 l 639 -239 l 668 -239 q 674 -238 671 -239 q 681 -237 678 -237 q 689 -237 685 -237 q 696 -236 693 -236 q 704 -235 700 -236 q 713 -235 708 -235 q 722 -233 715 -233 l 743 -229 l 744 -229 q 842 -200 794 -221 m 575 -236 l 585 -236 q 599 -237 588 -237 l 175 828 q 163 813 168 821 q 153 796 158 804 q 148 789 150 793 q 143 782 146 785 q 135 768 139 775 q 128 754 131 761 q 120 742 124 747 q 114 729 117 736 l 103 707 l 82 656 q 39 417 36 543 q 52 293 40 354 q 88 171 64 232 q 213 -39 133 53 q 283 -110 246 -79 q 401 -185 340 -154 q 575 -236 483 -226 z "},"r":{"ha":1054,"x_min":0,"x_max":943,"o":"m 765 319 l 736 301 q 715 291 725 296 q 693 282 704 286 q 663 272 678 276 q 629 264 647 267 l 594 260 l 628 208 l 942 -278 l 894 -278 l 547 260 l 269 260 l 39 -278 l 0 -278 l 0 1092 l 557 1092 q 572 1092 564 1092 q 586 1090 579 1092 l 622 1086 q 667 1075 644 1083 q 711 1056 689 1067 q 778 1014 747 1036 q 835 961 808 992 q 856 933 846 947 q 876 904 867 919 q 900 861 890 882 q 908 844 904 853 q 914 828 911 836 q 926 797 921 813 q 933 767 931 782 q 938 744 936 756 q 940 722 939 733 q 943 700 943 711 q 943 676 943 689 q 942 638 943 657 q 938 600 942 619 l 926 549 l 918 525 l 908 500 q 901 480 906 489 q 892 461 896 471 q 885 450 889 456 q 878 438 881 444 q 863 415 871 426 q 847 394 856 403 l 818 363 q 793 340 806 351 q 765 319 781 329 m 39 299 l 39 260 l 39 -181 l 229 260 l 246 299 l 571 1053 l 557 1053 l 39 1053 l 39 299 m 285 299 l 571 299 q 611 301 592 299 q 650 308 631 304 q 710 332 682 317 l 729 343 q 760 363 744 353 q 789 389 776 374 l 815 418 q 839 449 829 433 q 858 482 849 465 q 882 538 872 507 q 894 581 889 560 q 901 626 900 603 q 904 651 904 639 q 904 676 904 664 q 900 736 904 707 q 893 770 897 754 q 883 801 889 786 l 878 818 l 867 844 l 854 867 q 847 879 851 874 q 839 892 843 885 q 822 915 831 904 q 803 938 814 926 l 778 964 q 749 988 765 978 q 718 1007 733 997 q 706 1015 711 1011 q 693 1021 700 1018 q 649 1039 671 1032 q 606 1049 628 1046 l 285 299 z "},"s":{"ha":1126,"x_min":0,"x_max":1015,"o":"m 969 257 q 1015 85 1015 190 q 967 -86 1015 -17 q 912 -148 943 -121 q 843 -197 881 -175 q 679 -260 771 -239 q 657 -264 668 -262 q 635 -268 646 -265 q 602 -273 618 -272 q 571 -275 586 -274 q 540 -277 556 -276 q 510 -278 525 -278 l 493 -278 q 430 -274 461 -278 q 369 -265 399 -271 l 346 -261 l 313 -253 q 261 -236 286 -246 q 213 -215 236 -226 q 0 -65 88 -153 l 29 -40 q 250 -189 124 -139 q 510 -239 376 -239 q 671 -222 588 -239 q 757 -196 719 -211 l 793 -181 q 808 -174 800 -178 q 822 -165 815 -169 q 835 -158 829 -161 q 847 -150 840 -154 q 933 -65 901 -111 q 976 85 976 -4 q 971 143 976 122 q 931 244 963 199 q 815 339 883 306 q 661 386 743 374 q 601 392 631 390 q 543 396 572 394 l 504 397 l 500 397 q 467 398 483 397 q 433 400 450 399 q 400 403 417 401 q 367 407 383 404 l 328 414 q 321 415 322 414 q 287 423 303 418 q 257 432 271 428 q 211 450 233 440 q 167 474 189 460 q 135 497 150 485 q 107 522 121 508 q 60 585 83 546 q 19 758 19 654 q 44 890 19 832 q 53 907 49 899 q 63 924 57 915 q 74 940 68 932 q 86 956 79 949 q 136 1006 108 985 q 155 1019 146 1013 q 175 1033 164 1026 q 248 1068 210 1053 q 329 1093 286 1083 q 494 1111 407 1111 q 518 1111 506 1111 q 542 1110 531 1111 q 576 1108 560 1108 q 607 1104 592 1107 l 642 1099 l 643 1099 q 678 1091 661 1096 q 711 1081 696 1086 q 736 1072 724 1076 q 760 1063 749 1068 q 815 1029 789 1049 q 849 1001 831 1019 q 921 919 890 964 l 883 904 q 849 949 868 928 q 807 986 831 971 l 779 1004 q 744 1023 761 1015 q 710 1038 728 1031 q 669 1051 690 1044 q 626 1061 649 1057 l 381 444 q 396 442 394 442 l 419 439 q 433 438 426 439 q 446 438 439 438 q 473 436 460 436 q 500 436 486 436 q 589 432 544 436 q 636 427 613 429 q 683 421 660 425 q 750 406 718 414 q 811 383 782 397 l 850 365 q 856 362 853 363 q 863 358 860 361 q 898 334 882 347 q 929 306 914 321 q 969 257 950 283 m 343 449 l 592 1067 q 565 1069 578 1068 q 538 1071 551 1071 q 516 1072 526 1072 q 494 1072 506 1072 q 336 1056 413 1072 q 315 1051 325 1053 q 294 1046 304 1049 l 244 1026 q 220 1015 232 1021 q 197 1003 208 1010 l 178 990 l 144 963 q 113 926 126 944 q 105 916 108 921 q 99 906 101 911 q 69 842 79 876 q 58 758 58 800 q 63 685 57 719 q 85 622 69 650 l 107 583 q 148 535 124 556 q 200 499 172 514 q 342 450 267 463 l 343 449 z "},"t":{"ha":1200,"x_min":0,"x_max":1089,"o":"m 564 1054 l 525 1054 l 74 1054 l 525 783 l 564 760 l 564 728 l 564 -278 l 525 -278 l 525 739 l 1 1054 l 0 1054 l 0 1092 l 1089 1092 l 1088 1054 l 564 1054 z "},"u":{"ha":1224,"x_min":0,"x_max":1113,"o":"m 1075 1111 l 1113 1111 l 1113 413 q 1106 278 1113 342 q 1085 151 1100 214 q 1047 34 1069 89 q 992 -68 1025 -21 q 821 -221 926 -162 q 557 -278 714 -278 q 508 -276 532 -278 q 460 -271 483 -275 l 415 -264 q 348 -245 379 -257 q 289 -218 317 -233 q 118 -61 183 -160 q 26 160 53 36 q 0 413 0 282 l 0 710 l 0 793 l 0 1111 l 39 1111 l 39 704 l 442 -231 q 557 -239 496 -239 q 810 -182 713 -239 q 969 -32 911 -124 q 1020 67 1000 15 q 1051 176 1040 118 q 1069 294 1063 235 q 1075 413 1075 353 l 1075 1111 m 306 -183 q 350 -203 328 -194 q 396 -219 372 -212 l 39 619 l 39 413 q 44 290 39 350 q 63 171 50 229 q 146 -37 85 54 q 306 -183 201 -126 z "},"v":{"ha":1338,"x_min":0,"x_max":1226,"o":"m 1226 1082 l 1210 1043 l 635 -279 l 592 -279 l 17 1043 l 0 1082 l 40 1082 l 1183 1082 l 1226 1082 m 613 -231 l 1167 1043 l 57 1043 l 613 -231 z "},"w":{"ha":2067,"x_min":0,"x_max":1956,"o":"m 1292 -247 l 978 475 l 664 -247 l 1292 -247 m 976 571 l 1186 1051 l 768 1051 l 976 571 m 1369 -247 l 1351 -286 l 1308 -286 l 647 -286 l 604 -286 l 588 -247 l 0 1103 l 43 1103 l 626 -237 l 957 524 l 725 1051 l 708 1090 l 751 1090 l 1203 1090 l 1246 1090 l 1229 1051 l 997 524 l 1331 -237 l 1913 1103 l 1956 1103 l 1369 -247 z "},"x":{"ha":1258,"x_min":0,"x_max":1147,"o":"m 1103 -240 l 1132 -278 l 1132 -279 l 1085 -279 l 1083 -278 l 65 -279 l 15 -279 l 44 -242 l 550 392 l 0 1082 l 50 1082 l 575 422 l 1100 1082 l 1147 1082 l 597 392 l 1103 -240 m 94 -242 l 1054 -240 l 575 361 l 94 -242 z "},"y":{"ha":1251,"x_min":0,"x_max":1140,"o":"m 1140 1082 l 1115 1044 l 588 249 l 588 -279 l 550 -279 l 550 251 l 25 1043 l 0 1081 l 0 1082 l 44 1082 l 44 1081 l 1096 1082 l 1140 1082 m 569 292 l 1071 1044 l 69 1043 l 569 292 z "},"z":{"ha":1200,"x_min":3,"x_max":1089,"o":"m 1089 1082 l 1089 1043 l 533 -240 l 1081 -240 l 1081 -279 l 517 -279 l 474 -279 l 3 -279 l 3 -240 l 1040 1043 l 13 1043 l 13 1082 l 1089 1082 m 490 -240 l 999 932 l 50 -240 l 490 -240 z "},"":{"ha":617,"x_min":0,"x_max":0,"o":""},"":{"ha":617,"x_min":0,"x_max":0,"o":""}}}
